<?xml version="1.0" encoding="UTF-8" standalone="no"?>
<!DOCTYPE svg PUBLIC "-//W3C//DTD SVG 1.1//EN" "http://www.w3.org/Graphics/SVG/1.1/DTD/svg11.dtd">
<svg width="100%" height="100%" viewBox="0 0 2645 630" version="1.1" xmlns="http://www.w3.org/2000/svg" xmlns:xlink="http://www.w3.org/1999/xlink" xml:space="preserve" xmlns:serif="http://www.serif.com/" style="fill-rule:evenodd;clip-rule:evenodd;stroke-linejoin:round;stroke-miterlimit:2;">
    <g transform="matrix(5.4,0,0,5.4,-1595.98,-659.601)">
        <g>
            <g id="g" transform="matrix(-0.233284,-1.39905e-16,-2.77556e-17,0.233284,887.632,-47.5765)">
                <path d="M626.195,897.638C635.52,897.638 644.463,901.342 651.056,907.936C657.65,914.529 661.354,923.472 661.354,932.797C661.354,993.197 661.354,1174.93 661.354,1194.63C661.354,1196.12 660.761,1197.55 659.706,1198.61C658.651,1199.66 657.22,1200.26 655.728,1200.26C643.096,1200.26 612.853,1200.25 603.488,1200.25C601.935,1200.25 600.675,1198.99 600.675,1197.44C600.675,1184.01 600.675,1126.48 600.675,1113.05C600.675,1112.3 600.379,1111.59 599.852,1111.06C599.324,1110.53 598.609,1110.24 597.863,1110.24C585.601,1110.24 535.883,1110.24 501.123,1110.24C491.798,1110.24 482.855,1106.53 476.261,1099.94C469.668,1093.35 465.963,1084.4 465.963,1075.08L465.963,932.797C465.963,923.472 469.668,914.529 476.261,907.936C482.855,901.342 491.798,897.638 501.123,897.638C536.516,897.638 590.801,897.638 626.195,897.638ZM600.675,961.189C600.675,959.636 599.416,958.376 597.863,958.376C586.14,958.376 541.239,958.376 529.517,958.376C527.964,958.376 526.704,959.636 526.704,961.189C526.704,974.734 526.704,1033.14 526.704,1046.68C526.704,1048.24 527.964,1049.49 529.517,1049.49C541.239,1049.49 586.141,1049.49 597.863,1049.49C599.416,1049.49 600.675,1048.24 600.675,1046.68C600.675,1033.14 600.675,974.734 600.675,961.189Z" style="fill:rgb(255,140,0);stroke:rgb(35,43,63);stroke-width:3.75px;"/>
            </g>
            <g id="o" transform="matrix(0.233284,-1.39905e-16,2.77556e-17,0.233284,573.203,-47.5935)">
                <path d="M626.195,897.638C635.52,897.638 644.462,901.342 651.056,907.936C657.65,914.529 661.354,923.472 661.354,932.797C661.354,972.192 661.354,1035.68 661.354,1075.08C661.354,1084.4 657.65,1093.35 651.056,1099.94C644.462,1106.53 635.52,1110.24 626.195,1110.24C586.814,1110.24 523.357,1110.24 483.976,1110.24C474.651,1110.24 465.709,1106.53 459.115,1099.94C452.521,1093.35 448.817,1084.4 448.817,1075.08C448.817,1035.68 448.817,972.192 448.817,932.797C448.817,923.472 452.521,914.529 459.115,907.936C465.709,901.342 474.651,897.638 483.976,897.638C523.357,897.638 586.814,897.638 626.195,897.638ZM600.675,961.189C600.675,959.636 599.416,958.376 597.863,958.376C584.318,958.376 525.915,958.376 512.37,958.376C510.817,958.376 509.558,959.636 509.558,961.189C509.558,974.734 509.558,1033.14 509.558,1046.68C509.558,1048.24 510.817,1049.49 512.371,1049.49C525.915,1049.49 584.318,1049.49 597.863,1049.49C599.416,1049.49 600.675,1048.24 600.675,1046.68C600.675,1033.14 600.675,974.734 600.675,961.189Z" style="fill:rgb(255,140,0);stroke:rgb(35,43,63);stroke-width:3.75px;"/>
            </g>
            <g id="o1" serif:id="o" transform="matrix(0.233284,-1.39905e-16,2.77556e-17,0.233284,517.76,-47.5935)">
                <path d="M626.195,897.638C635.52,897.638 644.462,901.342 651.056,907.936C657.65,914.529 661.354,923.472 661.354,932.797C661.354,972.192 661.354,1035.68 661.354,1075.08C661.354,1084.4 657.65,1093.35 651.056,1099.94C644.462,1106.53 635.52,1110.24 626.195,1110.24C586.814,1110.24 523.357,1110.24 483.976,1110.24C474.651,1110.24 465.709,1106.53 459.115,1099.94C452.521,1093.35 448.817,1084.4 448.817,1075.08C448.817,1035.68 448.817,972.192 448.817,932.797C448.817,923.472 452.521,914.529 459.115,907.936C465.709,901.342 474.651,897.638 483.976,897.638C523.357,897.638 586.814,897.638 626.195,897.638ZM600.675,961.189C600.675,959.636 599.416,958.376 597.863,958.376C584.318,958.376 525.915,958.376 512.37,958.376C510.817,958.376 509.558,959.636 509.558,961.189C509.558,974.734 509.558,1033.14 509.558,1046.68C509.558,1048.24 510.817,1049.49 512.371,1049.49C525.915,1049.49 584.318,1049.49 597.863,1049.49C599.416,1049.49 600.675,1048.24 600.675,1046.68C600.675,1033.14 600.675,974.734 600.675,961.189Z" style="fill:rgb(255,140,0);stroke:rgb(35,43,63);stroke-width:3.75px;"/>
            </g>
            <g id="h" transform="matrix(0.233284,-1.39905e-16,2.77556e-17,0.233284,462.316,-47.5935)">
                <path d="M626.195,897.638C645.613,897.638 661.354,913.379 661.354,932.797C661.354,985.291 661.354,1080.57 661.354,1104.61C661.354,1107.72 658.835,1110.24 655.729,1110.24C643.096,1110.24 612.852,1110.24 603.488,1110.24C601.934,1110.24 600.675,1108.98 600.675,1107.42C600.675,1088.52 600.675,980.098 600.675,961.189C600.675,960.443 600.379,959.728 599.851,959.2C599.324,958.673 598.608,958.376 597.862,958.376C584.318,958.377 525.914,958.378 512.37,958.378C510.816,958.378 509.557,959.638 509.557,961.191C509.557,980.1 509.557,1088.52 509.557,1107.42C509.557,1108.98 508.298,1110.24 506.744,1110.24C497.372,1110.24 467.085,1110.24 454.442,1110.24C452.95,1110.24 451.52,1109.64 450.465,1108.59C449.41,1107.53 448.817,1106.1 448.817,1104.61C448.817,1062.98 448.817,803.227 448.817,761.598C448.817,760.106 449.41,758.675 450.465,757.62C451.52,756.565 452.95,755.972 454.442,755.972C466.058,755.972 492.328,755.972 500.968,755.972C502.521,755.972 503.78,757.231 503.78,758.785C503.781,776.881 503.782,876.729 503.783,894.825C503.783,896.378 505.042,897.638 506.595,897.638C520.742,897.638 585.056,897.638 626.195,897.638Z" style="fill:rgb(255,140,0);stroke:rgb(35,43,63);stroke-width:3.75px;"/>
            </g>
            <g id="W" transform="matrix(0.23332,0,0,0.23332,313.135,-47.634)">
                <path d="M708.676,761.532C708.676,760.04 709.269,758.61 710.324,757.555C711.379,756.5 712.809,755.907 714.301,755.907C728.634,755.907 766.14,755.907 776.715,755.907C777.461,755.907 778.176,756.204 778.704,756.731C779.231,757.259 779.528,757.974 779.528,758.72C779.528,786.354 779.528,1008.92 779.528,1036.56C779.528,1038.11 780.787,1039.37 782.34,1039.37C793.71,1039.37 836.211,1039.37 847.581,1039.37C848.327,1039.37 849.043,1039.07 849.57,1038.55C850.097,1038.02 850.394,1037.3 850.394,1036.56C850.394,1018.46 850.394,918.55 850.394,900.45C850.394,899.704 850.69,898.989 851.217,898.462C851.745,897.934 852.46,897.638 853.206,897.638C864.576,897.638 907.078,897.638 918.448,897.638C919.193,897.638 919.909,897.934 920.436,898.462C920.964,898.989 921.26,899.704 921.26,900.45C921.26,918.55 921.26,1018.46 921.26,1036.56C921.26,1037.3 921.556,1038.02 922.084,1038.55C922.611,1039.07 923.326,1039.37 924.072,1039.37C935.442,1039.37 977.944,1039.37 989.314,1039.37C990.06,1039.37 990.775,1039.07 991.302,1038.55C991.83,1038.02 992.126,1037.3 992.126,1036.56C992.126,1008.93 992.126,786.418 992.126,758.833C992.126,757.284 993.379,756.026 994.929,756.021C1005.49,755.984 1043.01,755.854 1057.36,755.804C1058.86,755.799 1060.29,756.389 1061.35,757.444C1062.41,758.5 1063.01,759.933 1063.01,761.429C1063.01,797.233 1063.01,993.835 1063.01,1075.08C1063.01,1084.41 1059.3,1093.35 1052.71,1099.94C1046.12,1106.54 1037.18,1110.24 1027.85,1110.24C959.997,1110.24 811.688,1110.24 743.832,1110.24C724.417,1110.24 708.679,1094.5 708.678,1075.08C708.678,993.842 708.677,797.275 708.676,761.532Z" style="fill:url(#_Radial1);stroke:rgb(35,43,63);stroke-width:3.75px;"/>
            </g>
        </g>
        <g>
            <g id="g1" serif:id="g" transform="matrix(0.233284,-1.39905e-16,2.77556e-17,0.233284,300.533,-47.5765)">
                <path d="M626.195,897.638C635.52,897.638 644.462,901.342 651.056,907.936C657.65,914.529 661.354,923.472 661.354,932.797C661.354,993.197 661.354,1139.84 661.354,1165.1C661.354,1174.42 657.65,1183.36 651.056,1189.96C644.462,1196.55 635.52,1200.26 626.195,1200.26C586.814,1200.26 523.357,1200.26 483.976,1200.26C474.651,1200.26 465.708,1196.55 459.115,1189.96C452.521,1183.36 448.817,1174.42 448.817,1165.1C448.817,1152.31 448.817,1139.24 448.817,1132.04C448.817,1128.93 451.335,1126.41 454.442,1126.41C466.013,1126.41 492.361,1126.41 503.932,1126.41C505.424,1126.41 506.855,1127.01 507.91,1128.06C508.965,1129.12 509.558,1130.55 509.558,1132.04C509.558,1133.65 509.558,1135.34 509.558,1136.7C509.558,1138.25 510.817,1139.51 512.371,1139.51C525.915,1139.51 584.318,1139.51 597.863,1139.51C599.416,1139.51 600.675,1138.25 600.675,1136.7C600.675,1131.11 600.675,1118.64 600.675,1113.05C600.675,1111.5 599.416,1110.24 597.863,1110.24C584.173,1110.24 523.565,1110.24 483.976,1110.24C474.651,1110.24 465.708,1106.53 459.115,1099.94C452.521,1093.35 448.817,1084.4 448.817,1075.08C448.817,1035.68 448.817,972.192 448.817,932.797C448.817,923.472 452.521,914.529 459.115,907.936C465.709,901.342 474.651,897.638 483.976,897.638C523.357,897.638 586.814,897.638 626.195,897.638ZM600.675,961.189C600.675,959.636 599.416,958.376 597.863,958.376C584.318,958.376 525.915,958.376 512.37,958.376C510.817,958.376 509.558,959.636 509.558,961.189C509.558,974.734 509.558,1033.14 509.558,1046.68C509.558,1048.24 510.817,1049.49 512.371,1049.49C525.915,1049.49 584.318,1049.49 597.863,1049.49C599.416,1049.49 600.675,1048.24 600.675,1046.68C600.675,1033.14 600.675,974.734 600.675,961.189Z" style="fill:rgb(255,140,0);stroke:rgb(35,43,63);stroke-width:3.57px;"/>
            </g>
            <g id="i" transform="matrix(1,0,0,1,-10.822,0)">
                <g id="Line" transform="matrix(0.23332,0,0,0.23332,196.471,-47.6165)">
                    <path d="M856.018,1110.24C852.912,1110.24 850.394,1107.72 850.394,1104.61C850.394,1073.49 850.394,922.937 850.394,900.45C850.394,898.897 851.653,897.638 853.206,897.638C864.576,897.638 907.078,897.638 918.448,897.638C920.001,897.638 921.26,898.897 921.26,900.45C921.26,922.937 921.259,1073.49 921.259,1104.61C921.259,1107.72 918.741,1110.24 915.634,1110.24C902.374,1110.24 869.278,1110.24 856.018,1110.24Z" style="fill:url(#_Radial2);stroke:rgb(35,43,63);stroke-width:3.57px;"/>
                </g>
                <g id="Dot" transform="matrix(0.0404145,0,0,0.0404145,369.105,97.5346)">
                    <g id="Right" transform="matrix(1,0,0,1,-491.281,4.90274e-13)">
                        <path d="M1534.3,1122.05L1534.3,1358.27L1329.72,1476.38L1329.72,1240.16L1534.3,1122.05Z" style="fill:rgb(255,140,0);stroke:rgb(35,43,63);stroke-width:22.91px;stroke-linecap:round;"/>
                    </g>
                    <g id="Left" transform="matrix(-1,0,0,1,2168.17,4.9738e-13)">
                        <path d="M1534.3,1122.05L1534.3,1358.27L1329.72,1476.38L1329.72,1240.16L1534.3,1122.05Z" style="fill:rgb(255,140,0);stroke:rgb(35,43,63);stroke-width:22.91px;stroke-linecap:round;"/>
                    </g>
                    <g id="Up" transform="matrix(1,0,0,1,-491.281,1.13687e-13)">
                        <path d="M1329.72,1003.94L1534.3,1122.05L1329.72,1240.16L1125.15,1122.05L1329.72,1003.94Z" style="fill:rgb(255,140,0);stroke:rgb(35,43,63);stroke-width:22.91px;stroke-linecap:round;"/>
                    </g>
                </g>
                <g id="Dot1" serif:id="Dot" transform="matrix(0.0404145,0,0,0.0404145,369.105,97.5346)">
                    <g id="Right1" serif:id="Right" transform="matrix(1,0,0,1,-491.281,4.90274e-13)">
                        <path d="M1534.3,1122.05L1534.3,1358.27L1329.72,1476.38L1329.72,1240.16L1534.3,1122.05Z" style="fill:rgb(255,140,0);stroke:rgb(35,43,63);stroke-width:10.31px;stroke-linecap:round;"/>
                    </g>
                    <g id="Left1" serif:id="Left" transform="matrix(-1,0,0,1,2168.17,4.9738e-13)">
                        <path d="M1534.3,1122.05L1534.3,1358.27L1329.72,1476.38L1329.72,1240.16L1534.3,1122.05Z" style="fill:rgb(255,140,0);stroke:rgb(35,43,63);stroke-width:10.31px;stroke-linecap:round;"/>
                    </g>
                    <g id="Up1" serif:id="Up" transform="matrix(1,0,0,1,-491.281,1.13687e-13)">
                        <path d="M1329.72,1003.94L1534.3,1122.05L1329.72,1240.16L1125.15,1122.05L1329.72,1003.94Z" style="fill:rgb(255,140,0);stroke:rgb(35,43,63);stroke-width:10.31px;stroke-linecap:round;"/>
                    </g>
                </g>
            </g>
            <g id="B" transform="matrix(-0.233284,-1.39905e-16,-2.77556e-17,0.233284,483.966,-47.5898)">
                <path d="M773.903,755.906C775.395,755.906 776.825,756.498 777.88,757.553C778.935,758.608 779.528,760.039 779.528,761.531C779.528,803.165 779.528,1062.98 779.528,1104.61C779.528,1106.1 778.935,1107.53 777.88,1108.59C776.825,1109.64 775.395,1110.24 773.903,1110.24C739.915,1110.24 560.886,1110.24 483.977,1110.24C474.652,1110.24 465.709,1106.53 459.115,1099.94C452.522,1093.34 448.817,1084.4 448.817,1075.08C448.818,1038.27 448.819,983.738 448.819,968.504C448.819,933.071 496.063,933.071 496.063,933.071C496.063,933.071 448.819,933.071 448.819,897.638C448.819,882.404 448.818,827.872 448.817,791.065C448.817,781.74 452.522,772.797 459.115,766.204C465.709,759.61 474.652,755.906 483.977,755.906C560.886,755.906 739.915,755.906 773.903,755.906ZM708.661,971.317C708.661,969.763 707.402,968.504 705.849,968.504C684.187,968.504 544.159,968.504 522.498,968.504C520.944,968.504 519.685,969.763 519.685,971.317C519.685,982.687 519.685,1025.19 519.685,1036.56C519.685,1038.11 520.944,1039.37 522.498,1039.37C544.159,1039.37 684.187,1039.37 705.849,1039.37C707.402,1039.37 708.661,1038.11 708.661,1036.56C708.661,1025.19 708.661,982.687 708.661,971.317ZM708.661,829.584C708.661,828.031 707.402,826.772 705.849,826.772C684.187,826.772 544.159,826.772 522.498,826.772C520.944,826.772 519.685,828.031 519.685,829.584C519.685,840.955 519.685,883.455 519.685,894.825C519.685,896.379 520.944,897.638 522.498,897.638C544.159,897.638 684.187,897.638 705.849,897.638C707.402,897.638 708.661,896.379 708.661,894.825C708.661,883.455 708.661,840.955 708.661,829.584Z" style="fill:rgb(255,140,0);stroke:rgb(35,43,63);stroke-width:3.57px;"/>
            </g>
        </g>
    </g>
    <defs>
        <radialGradient id="_Radial1" cx="0" cy="0" r="1" gradientUnits="userSpaceOnUse" gradientTransform="matrix(621.143,268.963,1.08212e-12,438.396,517.933,451.478)"><stop offset="0" style="stop-color:rgb(251,174,81);stop-opacity:1"/><stop offset="1" style="stop-color:rgb(255,140,0);stop-opacity:1"/></radialGradient>
        <radialGradient id="_Radial2" cx="0" cy="0" r="1" gradientUnits="userSpaceOnUse" gradientTransform="matrix(621.143,268.963,1.08212e-12,438.396,517.933,451.478)"><stop offset="0" style="stop-color:rgb(251,174,81);stop-opacity:1"/><stop offset="1" style="stop-color:rgb(255,140,0);stop-opacity:1"/></radialGradient>
    </defs>
</svg>
